<svg xmlns="http://www.w3.org/2000/svg" width="900" height="800" viewBox="60 0 233 327" preserveAspectRatio="xMidYMid meet" >

<path class="dorabg" fill="rebeccapurple" visibility="visible" d="M200.2 7.9l-.2 8.3-7.7-.7c-6.1-.5-8.3-1.2-10.6-3.1-3.6-3-7.8-3.1-11.4 0-2 1.6-4.7 2.5-9.3 3-8.2.9-28.1 5.1-34 7.3-24.8 8.8-40.5 23.5-49.6 46.1-.9 2.2-1.1 2.1-7.1-3.6-7.2-7-8.3-9-11.3-19.7C56.7 37 52.9 30 50.6 30c-2.5 0-4.5 2.9-6.1 8.8-.9 3.1-2.7 8.1-4.2 11.1-1.4 2.9-2.9 8.1-3.3 11.5-.5 3.3-1.6 8.1-2.5 10.6-1.2 3.2-1.6 6.4-1.2 11.2l.4 6.8-17.1.3-17.1.3 17.7.2c20.3.2 17.9-1.1 19.7 11 2 13.1 10.4 22.7 23.6 26.8 2.3.7 3.1 1.3 1.9 1.3-1.1.1-2.5.6-3 1.1-.6.6-4.3 1.4-8.2 1.7l-7.2.6-2.5-5.7c-1.4-3.1-2.9-5.6-3.5-5.6-.5 0-1.7 1.1-2.6 2.5l-1.7 2.6-2.2-2.1c-2.1-2-2.2-2-3.8-.2-.9 1-1.7 2.4-1.7 3 0 1.3 7 7.2 8.6 7.2 1.4 0 10.4 7.8 10.4 9.1 0 .5-1.1.9-2.4.9-5.5 0-7.5 2.9-3.5 5 1.5.8 3.4.8 7.1 0 6.4-1.3 7.3-.6 1.9 1.6-2.3.9-4 2.2-3.8 2.8.5 1.5 10.5 2.5 11.1 1.1.2-.5.5.4.5 2.2.1 1.7.8 3.9 1.7 4.7 1.9 2 1.9 2 3.8 0 1.5-1.4 1.7-1.4 3.2 0 .8.9 2 1.6 2.5 1.6s.8 2.6.6 6.1c-.2 4.8-.7 6.3-2.2 7.2-2.8 1.5-5.2 4.5-8.2 10.2-2.4 4.4-2.7 6.1-2.7 15 0 7.9.5 11.1 2.2 15.5 1.2 3 2.2 6.3 2.2 7.3 0 3.1-7.1 22.9-9.6 26.9-1.3 2.1-2.4 4.2-2.4 4.7 0 1.8-9.9 10.8-13.2 12.1-1.8.6-4.3 1.7-5.5 2.2-3 1.5-10.5.1-14.5-2.5-2.7-1.9-3.5-3.3-4.4-7.7-.6-3-.9-9-.6-13.3.5-7.2.4-7.7-1.5-7.7-3 0-5.2 3.1-6.5 9.2-2.6 12.3 5.1 26.5 16.3 30.1 2.8.9 6.2 1.7 7.4 1.7 1.3 0 2.6.6 2.8 1.2.4 1 .6 1 .6 0 .1-.6.9-1.2 1.9-1.2.9-.1 4.1-.9 7-1.9s5.1-1.5 5-1.2c-.2.3-2.5 5.1-5.2 10.6-7.2 14.7-8.1 17.1-11.8 27.7-1.8 5.4-3.9 9.8-4.5 9.8-1.7 0-1.6-1.8.7-12.9 1.1-5.2 2-9.9 1.9-10.5-.1-1.7-3.7 12.4-4.4 17.7-.8 5.4-1 5.5-12 6-5.1.2-4.1.4 3.8.5 11.6.2 11.4.1 9.5 6.3l-1.1 3.9-9.6.2-9.6.2 9.3.3c5 .2 9.2.7 9.2 1.1s-.9 5.3-2 11c-2.5 13-3.8 34.6-2.9 47.8.7 10.9 1.9 14.4 4.8 14.4 1.7 0 1.9-1.6 2.4-24.8.4-18 1.1-27.7 2.5-35.9 2.2-12.2 2.6-13.3 4.9-13.3 1.2 0 1.4.7 1 3.3-2.3 13-3.2 27.3-3.2 51.8 0 28.9.3 30.9 4.5 30.9.9 0 2.5.9 3.5 2 2.3 2.5 5.3 2.6 7.9.1 2.5-2.2 6.6-3.3 8.4-2.2.8.5-.8 1.7-4.6 3.4-6.4 3-7.5 4.5-9.6 12.4-1.9 7.3-1 10.7 4.3 14.8 2.4 1.9 4.7 3.5 5.2 3.5.4 0 1.9 1.1 3.2 2.4 2.1 2 3.4 2.4 9.8 2.5 10.5.2 11.1.2 14.2.8 2.4.4 2.8.9 2.3 2.8-.3 1.3-1.1 5.9-1.6 10.2l-1.5 10.5c-.4 2.4-.1 2.8 1.9 2.8 2.6 0 2.8-.6 4.1-10 .3-2.5 1.1-6.8 1.7-9.7l1.1-5.2 5.6-.6c3.1-.3 6.3-1 7.1-1.4.9-.5 2.2-4 3.1-8.7 1.6-7.8 1.7-7.9 4.5-7.7l15.9 1.2c7.2.6 21.4 1.3 31.7 1.7l18.8.7-.7 16.2c-.6 15.7-.5 16.4 1.6 19.9 1.3 2 2.9 3.6 3.7 3.6 1.6 0 1.2-1.2-1.3-4.2-1.6-1.8-1.9-13.3-.7-27.6l.6-8.2h11.1 11l-.8 17.2c-.6 14.8-1 17.6-2.7 20-1.9 2.8-1.9 2.8 0 2.8 3.6 0 5-6.1 5.3-23.4.2-8.6.6-15.9 1.1-16.2s8.1-1 17.1-1.5c15.1-.8 30.7-2.3 36.8-3.5l2.6-.5.7 8.8c.7 10 1.4 11.1 8.3 13.3 3.3 1 4.7 2.1 4.9 3.5.2 1.1 1 4.9 1.8 8.5.9 3.6 1.6 7.5 1.6 8.7 0 1.3.5 2.3 1.1 2.3 1.3 0 1-4.8-1.4-20.5-2-13.3-2.8-23.4-1.7-21.4 1.3 2.3 4.5 20.4 6.6 37.7.3 2.3.9 4.2 1.5 4.2.9 0 .3-12.6-.7-15.9-.2-.7.7-2.4 2.1-3.7 2.4-2.2 2.8-2.3 4.8-.9 1.5.9 4.2 1.3 8.3 1.1 7.3-.3 13.1-3.4 20.6-10.8 4.3-4.3 4.8-5.3 4.8-9.1 0-5.4-3.5-11.1-10.6-16.8-5.9-5-7.3-6.9-4.6-6.9 1 0 3.1-1.4 4.7-3 1.6-1.7 3.4-3 4-3 4.3 0 8.7-23.4 10.2-54 .6-12.2.8-13.8 1.6-10 .8 4.4.4 31.3-.9 53.7-.5 8.4-.3 11.7.6 12.8 6.3 7.5 9.5-11.9 9.5-56.7-.1-28.1 0-28.7 2-29.1 1.5-.3 1.4-.5-.6-.6-2.2-.1-2.7-.7-3.3-3.9-.3-2-.6-4.3-.6-5 0-.9 3.1-1.3 11.8-1.4l11.7-.2-12-.6-11.9-.5-1.2-8c-.6-4.4-3.7-17.7-6.7-29.5-9.6-37.2-12.4-51.7-14.6-75-4.7-48.6-5.6-56.1-7.6-62.6-2.4-8-2.3-8.3 3.4-7.1 7.1 1.4 13.6.1 17.4-3.3 2.7-2.4 2.9-3 1.8-4.4-1-1.2-3.2-1.6-9-1.7l-7.6-.1 4.2-1.5c5.8-2 14.3-9.7 14.1-12.7-.2-2.3-2.8-5.7-2.8-3.6 0 .5-.5 1-1.1 1-.5 0-.8-.4-.4-.9.3-.5.1-1.2-.4-1.5s.2-3.2 1.4-6.3c1.9-4.7 2.6-8.5 3.5-17.1 0-.1 6.6-.3 14.8-.4l14.7-.2-14.1-.3-14.1-.4 1-6.7c.5-3.7.6-8.7.3-11.2-.4-2.5-.6-8.8-.6-14.1.1-7.8-.2-10-1.8-12-1-1.3-1.9-4.4-2.1-6.9-.3-5.9-3.8-9.9-7.3-8.3-1.9.8-3 3.1-5.1 10.3-3.7 12.1-6.6 17.7-11.9 22.2-10.5 9.2-12.7 10.8-13.1 10.1-.3-.4-1.5-2.6-2.7-4.8-3.8-6.9-14.7-21.8-19.7-27-11.2-11.8-23.1-18.2-42.6-22.9l-8.8-2.1-.3-7.8c-.5-10.5-1.6-11.1-1.6-.8 0 8-.1 8.2-2.2 7.9s-2.3-1-2.9-8.3l-.5-8-.2 8.4zm7.6 11.1c8.8 1.2 16.8 3.6 28.2 8.5 9.3 4 13 6.5 20.6 14 8.1 8.1 7.9 7.6 10.9 24 1.6 8.8 2.1 40.1.6 42.4-.7 1-2.3.5-8-2.6l-7.1-4 1.8-2.4c2.8-3.6 3.3-6.9 2.2-15.4-1.6-12.3-7.1-27-14.2-37.8-4.4-6.8-19.6-13.9-37.3-17.6-10.6-2.2-26.2-3.4-27-2.2-.2.5 3.9 1.1 9.3 1.4 20.2 1.3 43 8.5 51.3 16.4 5.8 5.4 14.4 27.2 16.1 40.8 1.1 8.4 1 9.5-.6 11.9-2.5 3.9-4 4.1-10.4 1.3-7.3-3.3-26-8.2-37.7-9.8-13.2-1.9-43.9-1.6-55 .4-14.5 2.7-26.2 6-38.8 11.2-13.3 5.3-15.2 5.3-18.3-.7-1.5-2.8-1.5-4.2-.5-10.8.6-4.1 2.5-11.6 4.2-16.5l3.6-11c.8-2.5 8.1-16.6 9.6-18.3 4.7-5.7 34.4-13.6 56-14.9 5.3-.3 9.7-1 9.7-1.5 0-1-12.6-.2-26.6 1.7-13.2 1.9-34.5 8.8-38.9 12.7-7.7 6.7-18.2 34.2-19.2 50.1l-.6 8.8 3.4 3.5c1.8 1.9 2.7 3.4 1.9 3.4-.7 0-4.4 1.8-8.3 4-3.8 2.2-7.2 3.9-7.4 3.6-.2-.2.2-2.4 1-4.8 3.5-10.3 2.9-23.1-1.5-32.4-1.7-3.7-1.8-4.8-.8-7.9 4.3-12.9 16.8-28 29.6-35.7 10.5-6.3 28.7-12.2 42.4-13.8 5.8-.6 11.4-1.3 12.5-1.5 3.5-.6 35.7.5 43.3 1.5zM53.3 34.7c.8 1.6 2.4 6.4 3.7 10.8 3.3 11.6 4.9 14.1 14.3 23 8.3 7.9 8.5 8.2 10.1 15.2 2.5 11.2 1.7 20.6-2.6 28.7-1.5 2.8-1.5 2.7-2.1-4.9-.8-8.5-3.5-15.8-6.5-17.4-3.1-1.6-4-1.3-1.4.5 4.7 3.3 7.8 13.9 6.6 23.2-.5 4.4-1.4 6.1-4.4 9.3-3.2 3.4-4.2 3.9-8.3 3.9-3.7 0-5.7-.8-10.9-4.3s-6.9-5.4-9.5-10.6c-1.8-3.5-3.3-7.3-3.3-8.5 0-1.7.4-1.5 3.1 1.4 2.8 3.2 3 3.2 1.4.6-4.6-7.7-5.4-9.5-6.9-14.5-1.9-6.5-2-15.4-.3-19.5l1.3-2.9 1.2 5.4C41.1 83.8 44.1 93 45 93c.5 0 .3-1.5-.5-3.4-5-11.8-6.7-31.7-3.4-37.6 1.3-2.3 1.4-2 2 5.1.7 7.9 2.8 18.3 3.6 17.6.2-.3-.3-4.2-1.1-8.7-1.9-9.8-2-15.1-.5-23.8 1.1-6 3.5-10.2 5.9-10.2.5 0 1.6 1.2 2.3 2.7zm263.3-.2c2.3 3.5 1.2 15.8-2.1 26.2-1.4 4.1-2.5 8.1-2.5 8.7.1 2.6 2.9-4.6 5.1-13.2 1.3-5 2.7-9.2 3.1-9.2 1.3 0 2 6.9 1.4 12.4-.4 2.9-2.2 9.6-4 14.9s-3 9.4-2.5 9.2c.6-.5 2.5-4.9 5.5-13.5.4-1 .7-1.1 1.2-.3 1.4 2.2-.6 19-2.7 23.7-1.1 2.5-1.6 4.8-1.1 5.1 2.1 1.3-4.6 16-9.9 21.9-2.7 2.9-9.9 6.6-13 6.6-2.5 0-6.8-3.9-8-7.3-1.7-4.5-1.3-14.7.8-19.3 2.2-4.7 7.1-8.7 10.4-8.2 2 .3 2.2.9 2.2 5.8 0 3.6-.8 7-2.2 9.9-2 4.1-2.1 4.3-.3 2.5 2.9-2.8 5.6-14.7 4.2-17.9-2.8-6.2-12.5-.2-16.8 10.4-1.2 3.1-1.5 6-1.2 11.2.6 8.4-.5 8-4.8-1.4-2.4-5.4-2.8-7.5-2.8-15.7-.1-8.5.2-10.1 2.7-15.2 1.7-3.5 4.6-7.3 7.4-9.5 15.2-12.7 17.2-15.5 21.4-31.1 1.2-4.3 2.3-8 2.6-8.5.9-1.6 4.3-.6 5.9 1.8zm-112.3 83l23.2 4c8 1.5 17.1 2.5 23.7 2.6 10.2.1 10.9 0 16.4-3 6.5-3.5 7.4-3.7 7.4-1.6 0 2.2-6.7 6-15 8.5-9.8 2.9-23 2.4-45-1.9-9.1-1.7-19.9-3.6-24-4.1-9.1-1.1-34.1-.6-43 .9-36.7 5.9-51.7 6.5-59.7 2.3-5.5-2.9-5.6-4.6-.2-2.7 6.5 2.3 18 1.8 40.5-1.9l23.9-3.9c8.3-1.1 42.2-.6 51.8.8zm-52.6 8.8c-.6 2.2-1.3 8.1-2.1 16.5-.3 2.4-.7 4.6-.9 4.8-.3.3-3.2-.2-6.5-1-3.3-.9-9.9-1.7-14.6-1.8-7.5-.2-8.6-.4-8.6-2 0-.9.9-2.2 1.9-2.8 1.1-.5 3-2.8 4.2-5 1.2-2.1 2.8-4.1 3.6-4.4 2.3-.9 6 1.1 8.8 4.9 3.2 4.1 4.6 3.9 2-.2-4.1-6.4-9.1-8-13.9-4.2-3.1 2.5-3.7 2.3-2.5-.8.6-1.6 1.9-2.3 5.6-2.8l12.3-1.9c11.4-1.8 11.3-1.8 10.7.7zm65.6 1.7c.4 0 .1 1.3-.8 3-1.7 3.3-2 6-.5 6 .6 0 1-.6 1-1.4 0-.7 1-2.6 2.1-4.1 1.8-2.2 2.7-2.6 5.2-2.1 4.1.8 5.5 2.2 6.3 6.2.9 4.9 2.8 4.3 2-.6-.5-3.4-.4-4 1.1-4 3.2 0 4.4 1.6 5.2 6.8 1 6.5 1.1 6.5-16 6l-12.4-.3-1-8.3c-.6-4.5-.9-8.4-.7-8.6.1-.2 2 0 4 .5s4 .9 4.5.9zM123 153.5c0 .3-1.8 2.1-4 4.1s-5.4 5.8-7.2 8.5c-3.2 5-4.9 5.5-8.5 2.7-.9-.7-1.3-.7-1.3.1 0 .6 1.4 1.8 3.1 2.7 2.4 1.2 3 2 2.5 3.7-.3 1.2-.6 2.8-.6 3.6 0 1.4-4.2 1.2-8.2-.4-1-.4-1.8-.3-1.8.3 0 .5 2 1.5 4.5 2.2 4.2 1.2 4.5 1.5 4.5 4.7 0 3.7-.3 3.8-5.5 1.7-2-.7-2-.7-.1 1.4 1.1 1.2 2.5 2.2 3.3 2.2s1.3 1.2 1.3 3.1c0 3.1-.1 3.1-3.5 2.6-4.6-.7-3.6.9 1 1.7 3.1.6 3.5 1 3.5 3.7 0 2.9-.2 3-3.4 2.8-5.1-.5-5.6.9-.7 1.7 2.6.4 4.6 1.4 5.2 2.5 1.7 3.3 2.7 2.1 1.8-2.4-1.3-6.6-1-23.6.5-29.8 2.5-10.7 7-15.6 16.5-17.9 4.1-1 5.4-.9 8.7.6 5.9 2.7 6.1 2.7 3.1 0-2.2-2.1-3.8-2.6-7.8-2.6-2.8 0-6 .5-7.2 1.1-1.7.8-1.6.5.6-1.5 2.1-2 3.9-2.6 7.3-2.6 11.1 0 26.4 6.5 29.4 12.5 2.3 4.7 2.1 35-.3 43-4.1 13.3-10.8 20-24.2 24.2-14.6 4.6-38.6-4.4-45.1-16.8-4.1-8.1-4.8-12.2-4.8-27.4.1-19.3 1-22.6 7.2-26.5 8.4-5.3 30.2-12.1 30.2-9.5zm98.8 2.7c-6.2.8-13 4.4-14.9 7.9-.8 1.6.3 1.2 4.7-2 5.4-3.9 6.1-4.1 13-4.1 6.3 0 7.6.3 10.3 2.5 4.6 3.9 6.6 11.1 6.5 23-.1 5.5-.9 13.1-1.8 16.8-.9 3.8-1.6 7.4-1.6 8.2 0 1.8 4 2.6 7.5 1.6 2.9-.9 2.8-.9-1.2-1-3.4-.1-4.3-.5-4.3-1.9 0-1.9 1.4-4.4 2.4-4.3 2.9.4 5.6-.1 5.6-1 0-.7-1.2-.9-3.1-.7-2.9.5-3 .4-2.7-3.1.3-3.1.7-3.6 3.8-4.4 5.4-1.3 6.3-2.9 1.2-2.1l-4.3.7.3-4.3c.3-3.9.6-4.4 3.5-5.4 1.8-.6 3.8-1.7 4.5-2.5 1.1-1.2 1-1.3-.7-.6-1.1.4-3.2 1-4.7 1.3-2.6.4-2.8.2-2.8-3.1 0-3.2.3-3.5 3.5-4.1 4.8-.9 4.4-2.2-.5-1.8-3.6.4-4 .2-4-1.8 0-3.1-1.7-5.9-6.3-10.8l-4.1-4.2h3.6c1.9 0 4.1.6 4.7 1.4.7.8 3.8 1.8 6.9 2.2 15.2 1.8 18.5 6.7 18.4 27.1-.2 27-7.8 41.7-24 46.9-7.9 2.4-29 1.6-34.8-1.4-12.9-6.7-19.3-25.5-15.9-46.4 2.7-15.9 8.1-25.8 15.8-28.7 4-1.5 5.2-1.4 3.7.4-1.6 1.9.1 2 3.3.3 2.9-1.6 8.6-2.5 11.7-1.9 1.8.4.8.7-3.2 1.3zm-38 22.3c.8 2.4 1.4 9.9 1.5 19 .2 14 .4 15.4 2.9 20.8 3.6 7.6 8.1 13.2 13.2 16.5l4.1 2.6-5.5.9c-5.6.9-49.3.2-56.3-.9l-3.7-.6 5.7-2.8c3.2-1.5 7.8-4.7 10.2-7.1 7.1-7.1 8.8-12 14.5-41.3 1.9-9.5 3.6-11.8 8.5-11.4 3.2.3 3.7.7 4.9 4.3zm103-1.5c1.8 1.1 4.1 3.4 5.3 5.2 3.5 5.6 1.7 20.1-4.1 33.6-2.5 5.9-4 5.9-4 .1 0-4.7-3.3-20-5.4-25-1.7-4.2-1.4-4.9 2.5-4.9 2.2 0 3 .7 4.2 3.7 1.3 3.2 1.6 3.5 2.2 2 1.1-2.8-2.5-7.1-6.5-7.7-2.9-.4-3.1-.7-1.7-1.8.9-.7 1.9-2.7 2.2-4.3.8-3.4 1-3.5 5.3-.9zM72 187.7c0 .2-1.1.3-2.5.3-1.7 0-3.2 1.1-4.9 3.7-3.4 5-2.4 5.5 1.9.9 2.9-3.3 3.7-3.6 5.5-2.6l2.1 1.1-2.1 3.2c-3.4 5.3-8.7 15.9-10 20.4-.7 2.4-1.6 4.3-2.1 4.3-.4 0-1.4-3.1-2.4-6.9-3-12.4.1-26.5 7.1-32l2.8-2.2 2.3 4.8 2.3 5zm.3 25.5c-.4 4.7-.1 5.8 2.6 9.3 1.6 2.3 4.2 4.7 5.8 5.5l3.1 1.6c.2.1.9 2.5 1.7 5.3 1.2 4.7 1.2 5.1-.5 5.1-2.5 0-13-5.6-16.3-8.8-3.1-2.9-3.1-3.2.5-16 1.2-3.9 2.4-7.2 2.8-7.2s.5 2.4.3 5.2zm29.3 20.9c3.5 1.7 8.4 3.4 10.9 3.7l4.6.5-.7 4.1c-.4 2.2-.7 4.5-.7 5.1-.2 9.6 3.4 13.3 17.1 17.4 16.3 5 28.6 6.4 51.6 5.8 27.4-.6 36.9-3.2 46.8-12.5 3-2.9 4-4.8 4.9-9.4.6-3.2 1.6-5.8 2.1-5.8s.4-.9-.2-1.9c-.9-1.7-.3-2.2 5.5-4.1 7.1-2.4 17.5-8.7 17.5-10.7 0-.7.4-1.3.9-1.3 1.6 0-3.8 15.9-9 26.9-4.4 9.3-5.9 11.4-14.2 19.5-8.4 8.4-10.4 9.8-22 15.5-7 3.4-14.2 6.4-16 6.6s-5.7 1.3-8.7 2.5c-8 3.2-23 2.6-31.2-1.2-3.2-1.5-7-2.6-8.6-2.6-4.4.1-18.1-4.8-26.5-9.6-15.9-9.1-26.3-19.3-31.7-31.2-2.6-5.8-6.9-19.5-8.5-27l-.6-3.1 5.2 4.8c2.8 2.7 8 6.3 11.5 8zm53.4 6c13.7 1.2 44 .6 50.5-1 2.5-.7 5.1-.7 7-.1 1.7.4 5.9 1.1 9.5 1.4l6.8.6c.7.1 0 3.5-1.3 6-1.1 2.2-2.5 3.1-5.3 3.5-6.9 1.2-7.9 2.3-1.4 1.8 6.1-.6 6.2-.6 6.2 2 0 6.6-4.6 10-18.2 13.2-8.7 2-42.2 2-56.1 0-13.4-2-25.5-5.3-27.9-7.7-1.9-1.9-2.5-8.2-.8-9.3.5-.3 2 0 3.2.6 1.3.7 4.3 1.6 6.8 2s5.9 1.1 7.5 1.5c1.7.4 2.7.3 2.2-.1-1.2-1.4-8-3.5-11-3.5-3.7 0-8.4-2.5-9.2-4.9-.3-1-.1-3 .4-4.4 1.5-3.9 4.3-4.1 31.1-1.6zm56.4 52.7c.8 1.3-3.2 5.2-6.8 6.7-11.5 4.8-36.7 4.1-48-1.4-7.7-3.7-4.5-4.1 4.8-.6 5.3 2 8.5 2.5 15.9 2.5 5.1 0 10.8-.5 12.7-1.1 1.9-.5 5.9-1.7 8.8-2.5 3-.8 6.6-2.1 8-2.9 3.2-1.7 3.9-1.8 4.6-.7zm-58.5 6.1c3.2 1.7 8.8 3.7 12.5 4.5 8.7 2.1 25.3 2 33.1 0 3.3-.8 6.8-1.6 7.7-1.7s1.5-.4 1.4-.7c-.2-.3 1-1.5 2.5-2.8 2.8-2.3 2.9-2.3 2.9-.3 0 4.7-14.3 9.5-31.9 10.7-9.7.7-18.4-.5-26.8-3.6-7.7-2.8-9.3-4.1-8.6-6.8.3-1.2.7-2.2.9-2.2.3 0 3.1 1.3 6.3 2.9zm-22.1 25.2c1.7 2.7 3.2 5.3 3.2 5.9 0 2.9-3.4 11.2-5 12-.9.5-6 1-11.3 1.1-9.7.1-13.1-.6-10.6-2.2 2-1.2 3.1-1.1 2.3.3-.4.7-.3.8.4.4s4.4-.7 8.3-.7c4.7 0 7.7-.5 8.5-1.4.8-.7 1-1.5.5-1.7s-1.1-5.3-1.5-11.3c-.5-9-.4-10.7.6-9.1l4.6 6.7zm113.4 10.6l.4 9.2-5 .6c-2.8.3-8.5.6-12.6.8l-7.5.2-.1-5.5c-.1-3.8.5-6.5 1.7-8.5 1.9-3.1 2.6-2.8 1 .4-.6 1-.7 2.8-.4 4 .5 2.1 1 2.2 6.6 1.8 4.6-.4 6.5-1 7.8-2.5.9-1.2 2-1.8 2.3-1.4.4.3.4-.1 0-1.1-.3-.9-.2-2.3.3-3 .5-.6 1.5-3.2 2.3-5.7l1.3-4.5.8 3c.4 1.6.9 7.1 1.1 12.2zM104 342.4c0 8.2 1 11.6 3.5 12.6 1.5.6 2.3 1.7 2.3 3.5 0 3.8 2.9 6.5 7 6.5 4.7 0 8.2-3.2 8.2-7.6 0-2.8.4-3.2 3.4-3.8 4.8-.9 5.9-2.7 5.4-8.5-.5-5 .6-8.6 2.3-7.6 2.4 1.6.1 17.5-2.6 17.5-3.1 0-6.5 2.5-7.5 5.5-1.2 3.6-4.4 5.5-9.6 5.5-4.9 0-7-1.4-8.4-5.5-.7-2.2-2.3-4.1-4.1-5-2.8-1.5-2.9-1.8-2.9-8.4 0-3.8.3-7.6.6-8.5 1.2-3.3 2.4-1.4 2.4 3.8zm113 4.1c0 3.5.6 5.2 2.5 7 1.3 1.4 3.1 2.5 4 2.5.8 0 1.5.8 1.5 1.7 0 2.9 4.1 6.3 7.6 6.3 3.6 0 5-1.3 5.6-5 .2-1.8 1-2.6 2.8-2.8 4.4-.6 6-3 6-8.9 0-5.7 1.4-7 3-2.7 2.1 5.3.5 14.4-2.4 14.4-.8 0-3.5 1.6-6.1 3.5-4.2 3.3-5.1 3.6-10.3 3.3-5.4-.3-5.8-.5-7.4-3.8-1.3-2.6-2.8-3.8-5.5-4.6-3.5-1-3.8-1.4-4.1-4.9-.4-4.9.6-10.5 1.8-10.5.6 0 1 2 1 4.5zM73.6 360.1c9.1 5.2 16.6 8.9 18.2 8.9 1.9 0 3 2.5 2.1 4.7-1.1 3-4.8 3-12.5 0-6.3-2.5-17.1-9-19.1-11.4-1.2-1.6.1-7.3 1.7-7.3.5 0 4.8 2.3 9.6 5.1zm135.8-2.1c8.3.6 9.1.8 11.2 3.6 5.1 6.4 5.1 6.4 11.4 6.4 5.4 0 6.3-.3 9.6-3.4 3.8-3.6 8.8-5.1 10.5-3 .5.6 2.1 6.8 3.4 13.5 2.6 13.1 3.5 35.3 1.6 40.1-1.5 3.8-13.6 15.4-18.7 17.9-6.6 3.1-19.8 4-66.4 4.2-30.4.2-40.8-.1-55-1.6-26.5-2.8-34-4.9-36-10.1-1-2.6 1-14.7 2.8-16.9.7-.8 1-1.6.7-1.8-.2-.3 1.2-5 3.1-10.4l5-14.5c2.6-7.5 8.7-19 9.7-18.3.6.3.7.1.4-.4-.4-.6 0-1.6.8-2.3 1.1-1 1.7-.5 2.9 2.3 1.3 3.3 1.8 3.6 6.9 4.2 8.5 1.1 11.2.1 13.7-5l2.1-4.3 9.6-.1c5.3-.1 9.9-.4 10.2-.7.7-.7 49.9-.2 60.5.6zm85.9 3.2c.4 1.2.5 2.3.4 2.4-.1.2-3.6 1.4-7.7 2.7l-16.3 5.8c-7.4 2.7-9 3-9.8 1.8-2.7-4.2 1.2-6.6 20.1-12.5 9.8-3 12.6-3 13.3-.2zm-209 15.9c2.6.6 4.7 1.6 4.7 2.1s-1.1 3.7-2.3 7.1c-5.6 14.5-10.9 33.5-10.3 36.7.6 3.6 1.9 6.1 3.7 7 3 1.7 2.7 10.1-.6 13.6-1.6 1.7-3 5.3-4.2 10.5-2.3 10.1-5.2 10.6-5.4 1.1 0-3.4-.1-3.5-1-1.3-.5 1.4-.7 3.8-.3 5.4l.6 2.9-4.8-.5c-4.9-.4-7.4-2.4-7.4-5.8 0-1-.5-2.1-1.2-2.5-.8-.5-.9.4-.4 3.4l.6 4.2h-3.4c-4.2 0-5.4-1.4-6.1-7-.7-5.5-1.5-6.4-1.5-1.7 0 4-1.3 4.7-4.2 2-1.3-1.2-1.8-3.1-1.8-7.5 0-3.7-.4-5.7-1-5.3-.5.3-1 2.6-1 5.1 0 4.7-1.6 6-2.6 2-.7-3.1 1.2-12.3 3.2-15.4.9-1.3 4.9-3.9 9-5.8 8.4-3.8 8.8-4.4 9.8-15.3 1.3-12.7 5.3-32 8.6-40.6l.9-2.5 6.8 3.5c3.7 1.8 8.9 3.9 11.6 4.6zm201.6-6.8c1.6 2 4.9 13.4 5.6 19.7.3 3 1 12.8 1.4 21.7l.8 16.2 8.5 8.3c8.7 8.5 10.5 11.8 8.7 16.4-.7 1.8-.8 1.8-.8.1-.1-2.7-1.8-1.1-2.6 2.3-.7 3.2-4.1 8-5.6 8-.5 0-.3-1.3.6-3 1.7-3.3 2-6 .5-6-.5 0-1 .6-1 1.3 0 2.9-5.2 11.4-7.5 12.5-3 1.4-3.1.9-.5-2.6 2.2-3 4.1-11 2.3-9.9-.6.4-1.3 2.1-1.7 3.9-.9 4.6-6.2 9.8-10 9.8-3.5 0-6.6-2.5-6.6-5.3 0-1.5.5-1.8 2.5-1.3 2.8.7 3.3-.5 1-2.4-.8-.7-1.5-1.9-1.5-2.7 0-3.2-2.8.8-4.1 5.8-1.8 6.9-3.6 8.2-4.5 3.2-1.5-8.9-4.5-20.6-5.9-23.3-2.3-4.5-1.8-8.4 2-15.9 4.2-8.3 4.4-12.5 1.1-24.2-1.3-4.6-3.1-11.8-4.1-15.9s-1.9-8-2.2-8.6c-.4-1.1 2.9-2.7 13.7-6.8 7.6-2.9 8.4-3 9.9-1.3zM94 435.4c13.6 2.2 31.7 3.7 50.8 4.3l22.2.6v3.5 3.5l-23.6-.7c-13-.3-26.8-1.1-30.8-1.7-7-1-12.9-1.6-21.3-2-2.4-.2-4.3-.5-4.4-.8-.1-.4-.2-2.3-.4-4.3-.3-3.4-.1-3.8 1.8-3.4 1.2.3 3.8.7 5.7 1zm105 7.6v4h-14.5H170v-3.5-3.4l14.3-.4c7.8-.1 14.3-.4 14.5-.5.1-.1.2 1.6.2 3.8zm64.9 7.2c.1 4 .6 9 1 11 .5 2 .7 3.9.4 4.2-.5.5-7.5-1.3-8.5-2.2-.3-.4-.9-3.2-1.2-6.2l-1.2-9.2c-.5-3.6-.5-3.7 3.3-4.1l4.9-.5c.7-.1 1.2 2.4 1.3 7zM95 446.6c0 2.9-2.3 13.1-3.2 14.1-.6.7-3.2 1.3-5.9 1.3-4.7 0-4.9-.1-4.9-2.8.1-3.5 1.9-11.3 3-12.7 1.1-1.3 11-1.3 11 .1z"/>

<path class="dorabg" fill="rebeccapurple" visibility="visible" d="M157.5 32.5c-14.1 2.2-29.5 6.7-38.1 11.2-10.2 5.4-16.4 17.7-19.3 38.7-1.1 7.5-.5 12.5 1.4 13.3.7.2 6.4-1.1 12.6-3l13.9-4.2c22.8-6.1 30.8-6.9 56-6.2 23.8.7 31.8 2.1 52.8 9.4 8.8 3.1 10.6 3.4 12.9 2.4 2.5-1.1 2.6-1.4 2-7.4-.8-8.1-5-22.5-9-30.7-3.1-6.2-3.5-6.6-12.7-11.7-10.3-5.8-21.5-9.9-32.5-12-8.6-1.6-29.2-1.5-40 .2zm27.4 16.3c2.2 8.7 5.2 19.1 6.6 23.2 1.4 4 2.5 7.7 2.5 8.2 0 .4-1.5.8-3.4.8-3.4 0-3.5-.1-5.5-6.8-3.4-10.5-3.9-11.2-8.2-11.2-7.2 0-8.3 1-10.4 9.5-1.9 7.6-3.1 9.2-5.9 8.2-1.6-.6-1-3.5 5.7-26.2l4.7-16.8c1.3-4.7 1.3-4.7 5.5-4.7h4.2l4.2 15.8zm-23.1-13.2c1.7 1.2 2.2 2.5 2.2 6 0 5.8-1 7.6-7.7 14.5l-5.5 5.7 2.1 9.2 2.1 9.6c0 .2-1.1.4-2.4.4-2.1 0-2.8-1-5.2-7.1-1.5-3.8-3.1-7.2-3.6-7.5-1-.6-3.1 4.2-5.3 12.3-1.7 5.7-2 6.2-5.2 6.8-1.9.3-3.7.4-3.9.2-.4-.4.2-2.6 6-22.2 1.3-4.4 3.2-11.4 4.1-15.5 2.4-10.3 3.4-11.6 9.7-12.8 7.9-1.4 10.1-1.4 12.6.4zm43.2.5c.4.5 1.2 8.9 1.8 18.5 1.1 19.2 2.1 22.4 6.8 22.4 4.2 0 6.4 1.8 6.4 5.1 0 2.4-.4 2.9-1.7 2.5-3.3-.9-12.8-2.6-15.9-2.8-3-.2-3.2-.5-3.8-5.3-.3-2.7-.6-13.5-.6-23.9V33.7l3.2.7c1.8.3 3.5 1.1 3.8 1.7zm-77.6 11.3c-.4 3.8-2.4 35.2-2.4 38.3 0 1.3-.5 2.3-1.1 2.3-.7 0-1-2.2-.9-6.3.4-9.9.2-11.4-2-12-2.7-.7-4.7 1.1-6.4 5.8-4.9 13.4-7.7 18.5-10.2 18.5-1.8 0-1.8-.2.7-6.3l3.7-9.2c.8-2.2 2.4-5.9 3.4-8.2s1.8-4.4 1.8-4.7 2-4.8 4.5-10c2.5-5.3 4.5-10 4.5-10.6 0-.5.8-1.3 1.7-1.9 2.3-1.2 3.2.2 2.7 4.3zm107 1c3 1.9 6 4.5 6.6 5.6 1.1 2.1 1 2.2-2.7 1.8l-3.8-.3-.3 6.1-.3 6.1 4.1.7c3.8.6 4 .8 4 4s-.3 3.5-3.2 3.8c-2.8.2-3.3.7-3.3 2.8 0 2 .7 2.6 4 3.6 3.8 1 4 1.3 4.3 5.2.4 4.9-.1 5-7.4 2.6-7.1-2.4-7.4-2.8-7.4-10.3 0-3.6-.7-12.9-1.5-20.6L226 44.6c0-1.2 2.2-.2 8.4 3.8zm-99.7 124.1c-7 7.2-9.7 23.2-5.7 33.6 2.6 7.1 6.4 10.9 10.8 10.9 4.7 0 6.7-1.4 9.9-6.8 2.6-4.4 2.8-5.5 2.8-15.7 0-12.8-1.4-18.2-5.6-22.4s-7.8-4.1-12.2.4zm10.2.1c2 1.5 2.3 2.3 1.8 6.3-.4 3.3-1.2 5.2-3.2 6.8-2.6 2.3-7.5 3-10.9 1.7-3.2-1.2-1.4-8.9 3.2-13.7 2.9-3.1 5.7-3.4 9.1-1.1zm59.9.1c-6.2 6.7-9 19-6.8 29.9 2.5 11.8 12.6 15 20.4 6.4 4.3-4.7 5.1-8.4 5.1-22.2 0-10.4-.1-10.7-2.9-13.7-1.9-2-3.9-3.1-5.5-3-1.7.1-2 .3-.8.6 3.3.9.9 9.6-3.4 12.7-2.9 2-7.3 2.1-8.9.1-1.8-2.2 2.6-9.5 7-11.7 3.3-1.7 3.3-1.8.9-1.8-1.5 0-3.6 1.1-5.1 2.7zm-78.6 212.9c-1.4 1-1.4 1.7.1 7.7 2.3 9.6 7.2 18.9 12.9 24.9 2.8 2.9 5.1 5.1 5.2 4.9 0-.2 1.7.1 3.6.7 6.3 2 19.2 3.1 31.5 2.5 20.3-.8 30.1-4 39.1-12.4 6.5-6.3 9.5-12.9 10.2-22.7l.5-7.3-50.8.2c-36.5.2-51.1.6-52.3 1.5zm36.1 1.4c.4 0 .7 8.3.7 18.5 0 14.6-.3 18.5-1.3 18.5-.7 0-4-.5-7.3-1.1-7.8-1.4-15.3-6.3-17.9-11.7-1.1-2.3-2.3-4.2-2.7-4.2-.5 0-.8-.6-.8-1.3 0-.8-.7-2.8-1.6-4.6-1.6-3.1-4.4-13.8-3.8-14.3.2-.2 27.3-.1 34.7.2zm39.7 16.4v17.4l-3.2 1.2c-1.8.7-9.9 1.4-17.9 1.7l-14.6.6-.6-9.9c-.4-5.5-.7-14-.7-19.1v-9.1l18.5-.2 18.5-.1v17.5zm24.3-12.2c-.7 7.9-2.1 12.4-4.8 15.6-1.4 1.7-2.5 3.5-2.5 4 0 1.8-11.5 9.2-14.2 9.2-.1 0-.3-7.6-.3-17v-17h11.2 11.1l-.5 5.2z"/>
</svg>