<svg xmlns="http://www.w3.org/2000/svg" width="1200" height="1200" viewBox="-540 0 2000 2000" preserveAspectRatio="xMidYMid meet">
<path class="dorabg" fill="red" visibility="visible" d="M457 39.6L441 41c-62.9 5.6-120 31.2-159.3 71.5-43 43.9-65.7 102.8-65.7 170.6 0 20.2 2.7 43.3 6.7 56.4.3 1.1-1.9-1.4-4.8-5.5-12.2-16.8-30.6-26.2-51.4-26.2-30.5 0-55.7 20.6-61.9 50.5-3 14.4-1.4 26.4 5.5 40.7 3.2 6.8 5.6 10 12.2 16.5 13 12.7 26.7 18.4 45.2 18.5l8 .1 6.7 8.7c6.6 8.5 21.7 25.9 34.7 39.7 28.1 30 55 60.6 68.2 77.4l9.1 11.6-.7 21c-.7 25.4.5 55.8 4.1 100.5l2.8 33.5-3.4 13c-2.8 10.9-3.4 14.7-3.3 23.7v10.7l-7.2 1.6c-23.2 5.1-34.6 18-33.2 37.5 2.2 32 37.8 48 107.2 48 44.3 0 75.2-6.8 89.6-19.8 16-14.3 15.7-36.7-.7-49.7-2.8-2.2-5.9-4.5-6.9-5.1-1.8-1-1.7-1.4 1.8-6.1 7.4-10.1 15.2-13.7 29.7-13.8 9.9 0 10.9.2 17.1 3.2 7.1 3.5 15.9 11.9 15.8 15 0 1-2.1 3.2-4.7 4.9-15.8 10.2-17.4 34.6-3.2 48.2 13.7 13.2 40.5 19.3 97 22.3 39.7 2 65.5-1 82.1-9.7 8.7-4.6 14.4-10.3 18.3-18.4 2.8-5.8 3.1-7.4 3.1-15.5-.1-7.2-.5-10-2.4-14.3-4.1-9.2-14.2-16.6-28.8-20.8l-6.1-1.9V767c0-10.7-.5-14-2.9-22.5-3.4-12-3.5-20.4-.9-54 .9-12.1 1.9-35.1 2.3-51.1l.6-29.1 12.1 5.3 12 5.3 1.3 5.6c3.9 17.1 17.7 32.2 35.8 39.1 6 2.3 8.5 2.7 18 2.7 9.2 0 12.2-.4 18.1-2.5 24.1-8.5 39.9-32 38-56.8-1.6-22.3-16.1-41.4-36.9-48.8-9.4-3.3-23.5-4.1-32.2-1.8l-6 1.6-11.4-12c-14.4-15.3-32.1-31.5-43.3-39.8l-8.8-6.5v-5.4c0-5.8-1.9-11.6-5-14.8-1.9-2-1.9-2.1 8.1-13.5 31.3-36 56.7-83.1 67.9-125.9 5-19.1 7.1-33.1 7.7-52.6 1.8-57.8-13.9-112.4-44.8-155.2-36.8-50.9-94.2-82.5-167.9-92.4-13.9-1.8-55.8-3.3-67-2.3zm41.1 4.5c9.6.5 19.9 1.3 22.9 1.8l5.5.7-6 .8c-9.2 1.1-18.9 5.2-25.5 10.7-3.2 2.7-6.1 5.3-6.5 5.9-.3.6-1.1.7-1.7.4-.7-.4-.8-.2-.4.4s-.6 3.1-2.1 5.4c-2.8 4.3-4.4 8-6.7 15.2l-1.3 3.9-1.3-4.9c-1.8-6.7-4.5-11.9-9.6-18.6-7.5-9.7-16.2-15.1-28.9-17.9l-6-1.3 5.5-.8c6-.8 28.7-2.4 38.6-2.7 3.4 0 14 .4 23.5 1zm58.4 8.2c2.2.6 4.6 1 5.3.8.6-.1 1.2.3 1.2.9 0 .5.3.9.8.8 1.1-.3 8.3 1.2 10.1 2.2.9.5 4.8 1.9 8.6 3.1 8.1 2.5 11.6 4 27.5 11.6 9.6 4.5 28.2 15.3 30 17.3.3.3 3 2.4 6.1 4.7 13.7 10.2 35.6 32.3 34.2 34.6-.3.6-.1.7.5.3 1.1-.6 8.5 8.6 12.2 15.2.8 1.5 1.8 2.9 2.2 3.2.9.7 11.8 19.2 11.8 20.1 0 .4 1.8 4.6 4 9.3 5.6 12.2 10.6 27.1 14.6 44.1l1 4c1.7 5.6 4.7 28.6 5.6 43.3.9 13.9.9 21.4 0 31.5-1.2 13.3-5.1 34.8-7.6 42.2l-3.2 10.5c-1 3.6-2.2 6.8-2.7 7.1s-.8.9-.7 1.3c.2 1-1.2 6.9-2.1 8.6-.4.8-3.1 6.9-6 13.5-2.8 6.6-6.7 14.9-8.7 18.5-9.1 16.9-13.4 24-14.4 23.4-.7-.4-.8-.2-.4.5.7 1.1-.2 2.7-9.9 16.6-7.7 11.2-10.6 14.6-11.7 13.9-.6-.4-.8-.2-.5.3.8 1.3-4.7 8-17 20.5-4.2 4.3-7 6.2-10.7 7.3-2.8.9-6 2.1-7.1 2.7l-2 1.1 2-2.3c1.1-1.3 2.7-3.1 3.5-4 2.8-3.1 6.5-7.5 10.5-12.5 2.1-2.8 4.4-5.5 5-6 .5-.6 4.3-6 8.2-12l8-12.1c5-6.7 22.8-43.9 25.3-52.9l4-13c5.4-17.2 9.7-40.5 10.1-55.2l.2-7.2 5.3-5.1c9.9-9.6 15.5-24.5 15.6-41.4.2-22.8-8.7-38.4-26.6-46.7l-7.3-3.4-5.1-10.5c-4.5-9.3-6.9-13.8-9.4-17.5-2.9-4.2-13.7-16.1-19.1-21.1-12.6-11.5-33.4-22.1-53.1-26.9-12.9-3.2-13.4-3.3-16.6-3.4-4.4-.2-4.9-1.1-3.9-7.1 1.3-7.8 1.3-22.7-.1-29.7-3.8-19.7-16.5-36.9-33-44.8-4.8-2.3-5-2.5-2-2 1.9.4 5.3 1.2 7.5 1.8zm-121.1-.2c18.4 3.4 32 17.9 37.2 39.4 2.5 10.4 2.2 30.6-.5 41-3.4 12.9-5.6 16.3-13 20.1-6.7 3.4-12.2 8.1-14.9 12.7-2.2 3.7-7.4 5.1-19.7 5.1-16.5 0-27.5-4.3-37.3-14.9-9.9-10.6-14.1-22-14.9-40.5-.6-13.5.8-20.4 6.4-31.8 7.8-15.8 23.1-27.8 39.8-31.2 5.8-1.2 10.4-1.1 16.9.1zm108 1.9c15.9 5.5 28.5 19.1 34.7 37.5 2 6 2.4 8.9 2.4 20.5-.1 15.1-1.5 22.4-6.6 32.7-8.6 17.7-26.9 27.7-47.4 25.9-12.7-1.2-21-4.1-24.4-8.7-1.2-1.5-4.7-4.6-7.9-6.8-4.8-3.2-6.4-5.1-9-10.3-5-10.2-6.6-18.4-6.6-33.8s2.1-24.8 7.7-35.4c6.3-11.8 18.2-20.9 30.8-23.6 6.5-1.4 19.6-.4 26.3 2zM396 57.1c-9.4 6.5-16.1 14.2-21.1 24.4-5.9 12.2-7.2 18.6-6.7 34 .3 7.1.8 13.8 1.3 14.7.5 1.4.2 1.8-1.4 1.8-3.2 0-22.6 4.8-31 7.7-4.1 1.4-7.9 2.6-8.5 2.7s-4 1.7-7.5 3.5c-3.4 1.8-7 3-7.8 2.7s-1.2-.2-.9.2c.2.4-1.6 2.1-4.2 3.7-6.6 4-15 10.3-19.4 14.3-2 1.9-4.1 3.1-4.7 2.8-.6-.4-.9-.1-.5.7.3.8-.7 2.5-2.3 3.8s-3.9 3.9-5.1 5.7c-1.3 1.8-2.7 3-3.1 2.8-.4-.3-.8 0-.8.7s-2.2 4.3-4.8 8.2c-2.6 3.8-5.8 9.4-7.1 12.3-1.5 3.5-2.8 5.1-3.5 4.6-.8-.5-.9-.3-.5.5 1.5 2.4-1.4 6.7-6 8.9-5.1 2.5-14 10.4-14.9 13.3-.4 1.1-1.1 1.6-1.7 1.3-.6-.4-.8-.3-.5.3.3.5-.3 2.4-1.3 4.1-1.1 1.7-2.7 5.7-3.7 8.9-2.3 7.6-2.2 27.3.1 35.3l1.9 6.5c.8 3.2 6.1 12.6 9.1 16 3.1 3.5 3.6 4.7 3.7 9.5 0 3 .2 6.2.3 7 .4 1.7 1.7 12.1 2.2 16.5.6 5.7 6.3 27.1 10.7 40 5.4 16 8.2 22.4 15.8 36l4.8 9c2.6 5 9.1 14.6 14.4 21.4 2.7 3.5 4.5 6.1 3.9 5.7-1.2-.7 6.2 7.4 18.8 20.8 8.3 8.9 8.4 8.9 2.5 4.1-13.9-11.3-40.9-38.5-42.4-42.8-.2-.6-1.3-2-2.3-3.2-15.2-16.2-38.6-62.3-44.5-87.5-6.2-27-7.8-41.9-7-65.5.9-24.9 5.9-54.9 11.3-69 .9-2.2 1.8-5.1 2.1-6.5.2-1.4.8-2.9 1.4-3.5.5-.5.9-1.5.9-2.3s.6-2.8 1.4-4.5l5.1-11.7c2.1-4.7 4.6-9.9 5.6-11.7 1.1-1.7 3.3-5.5 4.8-8.5 1.6-2.9 3.4-5.2 4-5 .6.1 1-.1.9-.5-.4-1.4 1.3-5.3 2.3-5.3.5 0 .9-.5.9-1.1 0-3.5 20-26.7 33.2-38.5 10.5-9.5 33.8-26.5 33.8-24.8 0 .4 1-.2 2.3-1.4 2-1.9 26.1-14 29.1-14.7.6-.1 3.1-1.1 5.6-2.2s10.6-3.9 18-6.2l14.5-4.6c.6-.2 2.1-.4 3.5-.4 1.9-.1.7 1-5 5zm-20.3 87.7c6.9 14.6 18.2 23.8 34.3 27.8 4.9 1.2 9.4 1.5 18.2 1.2l11.8-.5-.8 2.6c-.4 1.4-.7 6.2-.7 10.6 0 6.5.5 9.1 2.7 13.7 5.2 11.2 16.4 19.7 28.1 21.4l4.7.6v39.4 39.3l-3.2.5c-1.8.3-10.4.7-19.1 1.1-30.9 1.1-55.6 4.3-88.7 11.5-32.8 7.2-42.1 8.3-63 7.7-26.7-.7-40-5.1-53.1-17.4-11.3-10.6-16.2-23.5-16.1-41.8.1-20.7 8.2-34.6 24.7-42.1 11-5.1 25-4.1 32.5 2.3 1.9 1.5 3.7 2.3 4.7 1.9 1.4-.6 1.3-1-.8-3.3-1.3-1.4-4.9-3.7-7.9-5.1-4.6-2.1-7-2.5-14.2-2.5-4.9 0-8.8-.4-8.8-.9 0-1.6 5.2-11.3 10.6-19.6 14.6-22.4 39.1-40.5 67.4-49.7 9.7-3.1 27.2-7.3 31-7.4.9 0 3.1 3.4 5.7 8.7zm213.3-6.3c8.5 1.3 24.3 5.6 32.8 9.1 27.3 10.9 47.2 29.7 60.2 56.6l4.1 8.3-6.8.6c-11.6 1.1-23.6 7-20.6 10 .8.8 2.2.3 4.9-1.5 5.4-3.4 12.3-5 20.3-4.4 8.8.7 16.5 4.2 23.4 10.7 9.7 9.2 13.7 19.3 13.7 35 0 28.6-14.4 46.4-44.1 54.3-7.6 2.1-10.7 2.3-31.4 2.3-25 0-33.2-1.1-59.7-7.4-14-3.4-31.8-6.4-47.8-8-11-1.2-45.3-3.1-55.2-3.1H477v-39.5-39.4l3.8-.7c20-3.7 33.7-24.2 29-43.5-.9-3.5-1.5-6.5-1.3-6.7.1-.1 3.1.4 6.6 1.3 7.6 1.7 21.6 2 29.1.4 14-2.9 26.8-13.6 33.6-28 2.6-5.5 4.1-7.7 5.2-7.5.8.3 3.5.8 6 1.1zm-113.9 25.2c3.1 1.8 5.9 6.7 5.9 10.3s-2.8 8.5-5.9 10.3c-9.5 5.6-21.3-3.1-18.2-13.3 2.3-7.9 11.2-11.4 18.2-7.3zM178.4 312.5c39 8.3 59 50.5 40.8 86-7.2 14-22.3 26-37.9 30-7.3 1.9-22.3 1.9-29.6 0-20.9-5.4-38.4-23.2-43.3-44.1-2.1-9.2-1.5-23.5 1.6-32.4 9.7-28.6 39.3-45.7 68.4-39.5zm75.6 2.1c3.2 2 10.4 5 15.9 6.8l10.1 3.2 6.6 11.4c31.5 55 71.8 100.8 108.7 123.7 25.8 15.9 45.9 22.1 74.7 23 30.4.9 50.5-3.3 75.5-15.7 7.7-3.8 18.1-10 23-13.7 11.5-8.5 32.8-29.8 43.5-43.3 14.7-18.7 36.5-53.2 51-80.8 2.5-4.7 3.9-6.4 5.9-6.8 9.2-1.8 19.5-4.9 25-7.5l6.4-2.9-.7 9.4c-3.7 53.4-30.6 113.2-71.1 157.9l-9.4 10.5-16.3 3.1c-16.6 3.1-37.5 5.9-61.8 8.3-21.5 2.1-107 1.7-127.5-.5-21.6-2.4-34.7-4.3-49-7.3-21.5-4.4-23.4-5.2-34.4-14.8-38.5-33.3-66.9-81.4-78-132.2-1.6-7.2-5.1-31-5.1-34.6 0-1.3 1-.9 7 2.8zm-19 60.3c2.7 6.1 6 13.2 7.4 15.7 1.4 2.6 2.6 5 2.6 5.5s-3.8-1.8-8.4-5.1l-8.3-6 .9-5.7c.5-3.2.8-8.1.6-11-.2-2.8-.1-5 0-4.8.2.2 2.6 5.3 5.2 11.4zm-.5 19.6l9.8 7.2c4.5 3.3 5.4 4.2 10.1 10.5 2 2.7 3.3 4.8 2.8 4.8-.4 0-.2.4.4.8s2 2.1 3 3.7c4 6.5 17.7 22.7 29.3 34.8 3.6 3.8 6.5 7.3 6.3 7.8-.1.6.2.8.8.4.5-.3 3.3 1.5 6.1 4.2 2.8 2.6 5.7 5.2 6.6 5.6 1.2.8 1.2 1.2-.4 2.9-2.6 2.9-3.2 18.2-.8 22.7.9 1.8 2.3 3.5 3 3.8.8.3 1.2 1 .8 1.7-.3.6-.3.8.2.4.4-.4 5.5 1.7 11.4 4.6 5.8 2.9 13.8 6.4 17.6 7.6 3.9 1.3 7.5 2.7 8 3.1.8.6 8.9 2.7 33.5 8.6 2.3.5 2.2.7-2 2.6-2.5 1.2-4.7 2.1-5 2.2-1.6.2-13.3 8.1-17.5 11.8-2.7 2.5-5.4 4.3-6 3.9-.5-.3-.7-.2-.3.3.4.4-1.7 3.4-4.6 6.7-5.8 6.6-13.3 19.9-16.4 29.3-13.2 40.2-3.8 84.7 24 113.5 8.6 9 21.2 18.9 29 22.9 1.5.8 2.5 1.9 2.1 2.4-.3.6-.1.7.5.3.7-.4 3.3.4 6 1.8 13.4 7 35.7 13.1 57.6 15.7 16 1.9 49.2.6 64.1-2.6 14.4-3 12.9-2.6 24-6.5 12.2-4.3 26.4-11.8 35.3-18.5 4.1-3 7.8-5.3 8.3-4.9.5.3.8.2.7-.3-.2-.4 2.7-3.7 6.2-7.3 13.5-13.5 19.5-22.3 27.2-40 13.5-30.8 8.7-79.3-10-103-9.5-11.9-23-20.9-39.1-26l-4.4-1.4 9.9-1.3c32.9-4.1 71-14.6 80.4-22.2l3.6-2.9 4.5 3.1c10.7 7.3 28.4 23.7 55.1 51.3 7 7.2 7.7 8.4 8.9 13.9 2.3 11.2-3 25.5-13.2 35.7-8.8 8.8-16.4 10.7-25.4 6.3-2.7-1.4-5.3-2.5-5.7-2.5-1.4 0-18.3-8.4-19-9.4-.4-.6-.8-5.2-.8-10.1 0-5-.7-16.3-1.5-25.3-1.3-14.4-2-19-4-28-.5-2-3.3-3-4.7-1.7-.3.3.1 3.8.9 7.8 6 31.3 6.4 102 .7 164.9-1.3 15.1-1.3 17.3.1 23l1.9 7.8c.2.8.6 2.2.9 3 2.4 5.7 3.8 28 2.1 32.5-1.1 2.7-9.7 6.2-19.4 7.9a137.08 137.08 0 0 0-6 1.1c-1.4.3-10.1 1.2-19.5 2-35.4 3.1-85.5 1.1-98.8-4.1-.9-.3-3-3-4.7-6s-3.8-5.8-4.6-6.1-1.3-1.2-1-1.9 0-1.6-.6-2c-.7-.4-.8-.3-.4.4 1.1 1.8.2 1.5-6.1-2.2-12-7.1-28.9-7.9-41.3-1.9-6.3 3.1-14.8 11.1-17.3 16.4-1.5 3.3-2.3 3.8-8 5.2-27.4 6.9-102.1 3.2-123.7-6.1-7.2-3.1-7.5-3.8-7.5-18.1 0-10.6.4-14.3 2.9-23.5 2.6-10.2 2.8-11.9 2.2-24-.3-7.2-1-17.2-1.5-22.1-2.3-20.7-4.1-57.7-4.1-83.5 0-28.3.8-42.5 3.6-61.4 1.2-8.6 1.3-11 .3-11.6-3.3-2.1-4.2 1.1-6.7 22.4l-.7 5.9-4.2-5.9c-2.3-3.2-5-6.8-6-7.9s-3.8-4.5-6.3-7.5c-4.1-5.1-19.6-22.9-20.9-24-.3-.3-3.5-3.9-7.1-8s-7.4-8.4-8.6-9.5c-1.1-1.1-5.1-5.4-8.9-9.5l-12-13c-9-9.6-31.7-35.4-33.4-38-.8-1.4-2.2-3.2-3.1-4-.8-.8-2.2-2.4-3-3.4-1.4-1.8-1.3-1.9.3-1.3.9.3 1.7.3 1.7-.2s1.4-1.1 3-1.5c4.3-.8 13.8-5.7 19.2-9.8 9-6.9 19.3-21 21.3-29.1.4-1.5 1-2.7 1.4-2.7.3 0 3.3 2 6.6 4.5zm248.7 121.6c8.1 1.8 15.5 5.7 21.3 11.4 4.9 4.7 9.2 11.1 8.2 12.1-.2.3-7.8-.1-16.8-.7-15.8-1-37.1-.6-52.4 1.1-3.8.4-7.2.6-7.3.4-.2-.1 1.2-2.7 3.1-5.6 9.4-14.7 27.2-22.2 43.9-18.7zM417.5 534c17.3 1.7 16.5 1.4 15.2 5-.6 1.6-1.5 3-1.9 3s-1.7.9-2.8 2c-2.4 2.4-2.6 7.2-.5 9.4.9.9 1.5 3.3 1.5 6.3.1 15.5 10.5 31.9 24.9 39.1 29.7 14.8 64.6-4.7 66.9-37.5.3-4.4 1-7.7 1.8-8.4 2.6-2.1 1.7-6.9-1.9-10.3-6.1-5.7-5.7-6.3 4.1-7.2 18.7-1.7 28.9-1.1 38.7 1.9 14.7 4.7 23.9 10 33 19.2 12.1 12.1 17.3 22.4 21.2 42.3 2.6 13.6 2.4 36.2-.6 47.5-7.3 28.1-22.6 49.7-47.4 66.8-25.4 17.5-58.1 26.9-94.3 26.9-73.8 0-127.4-33.4-142.6-89.1-2-7.4-2.3-10.7-2.3-27.4 0-17.6.2-19.7 2.7-28.7 8.5-30.4 28.1-51.5 56.7-61.1 5.5-1.9 8.1-2.3 11.4-1.7 2.3.4 9.6 1.3 16.2 2zm94.4 9.9c6.5 1 8.1 2.1 8.1 5.5 0 1.4-.5 1.7-2.2 1.3-11.4-2.9-57.3-3.2-78.2-.6-9.9 1.2-12.3.4-9.2-3 1.8-2 5.7-2.8 20.6-4.2 10.6-.9 52.3-.3 60.9 1zm1.8 9.7c3.8.7 4.2 2.2 3.1 10.9-2.2 16.5-17.8 32.6-34.2 35l-4.6.7v-10.1c0-7.7.3-10.1 1.3-10.1 2 0 6.5-5.1 7.2-8.2 1-3.9-2.1-9.7-6.1-11.4-7-2.9-14.4 2-14.4 9.5 0 4.2 2.8 8.6 6 9.6 1.8.6 2 1.6 2 10.7v10.1l-5.7-.7c-18.3-2.1-33.5-18.4-35.8-38.3l-.7-6.2 3.6-.7c8.8-1.6 25-2.2 49.1-1.8 14.3.2 27.4.7 29.2 1zm241.8 9.1c22.4 6.9 37.4 26.9 37.5 49.8 0 33.8-32.2 59.3-64.5 51-10-2.6-16.5-6.3-24.1-13.9-7.1-7.2-12.7-16.4-14-23.4l-.6-3.2h4.9c16.7 0 35.3-23 35.3-43.6 0-5-2.4-13.4-4.2-14.5-2.3-1.5.6-2.9 7.3-3.8 7.8-1 15.7-.4 22.4 1.6zM296.6 780.1c8.2 9.1 42.5 14.9 88.2 14.9 23.1 0 36.3-1.1 47.5-4 7.2-1.8 7.2-1.8 10.6.3 9.9 6 14.1 12.5 14.9 22.8.7 9.5-1.7 15.9-8.3 22.5-15.1 15.1-45 21.2-98.4 20.1-19.7-.4-28.5-1-38-2.6-36.8-6.3-54.6-19.5-55.9-41.3-.6-10 1-15.6 6.1-21.4 4.5-5.1 9-7.7 19.2-11 8.8-2.9 11.7-2.9 14.1-.3zm374.8 6c12.7 4.7 21.3 12.5 23.7 21.2 1.6 6 .6 17.2-2.1 23.4-2.8 6.6-10.1 13.5-18.3 17.3-15 7.1-34.9 9.6-68.2 8.7-37.9-1.1-67.8-4.8-84.9-10.6-18.9-6.4-27.4-15.2-28.4-29.2-.8-11.4 3-19 12.5-25.3 4-2.7 4.1-2.7 9.9-1.2 13.9 3.5 22.6 4.1 60.4 4.1 30.3 0 39.9-.4 50-1.8 14.6-2.1 26.5-5.1 30.6-7.7 3.3-2.2 6.8-1.9 14.8 1.1zM440.2 98.8c-4.9 4.9-6.6 10.8-6 20.7.7 11.4 6.4 18.7 14.4 18.7 4.9 0 8.3-2.7 11.7-9.2 5.4-10.6 2.6-27.1-5.5-32-5.4-3.3-10.1-2.7-14.6 1.8zm61.3-4.1c-13.2 3.4-16.7 28.4-5.5 39.5 3.1 3.1 4.5 3.8 7.8 3.8 4.9 0 9.2-3.3 12.5-9.4 3.2-6 3.1-18.3-.1-24.8-3.4-6.9-9.3-10.5-14.7-9.1zM291 185.4c0 1.8-1.4 1.3 25.5 8.1 39.1 9.9 66.4 17.5 84.3 23.2 8.5 2.8 11.5 3.4 12.4 2.5 1.8-1.8-5.3-4.5-31-11.8-22.7-6.5-87.8-23.4-90-23.4-.7 0-1.2.6-1.2 1.4zm-13 59.9c0 1.1 6.2 1.5 31.7 2 40.7.9 99.8.9 100.6 0 .4-.3.2-1.2-.4-2-1.7-1.9-131.9-2-131.9 0zm109 33.2c-14.6 2.2-65.6 10.8-92.9 15.7-11.1 2-14.7 3.5-12.8 5.4.2.3 11.9-1.6 25.9-4 42.6-7.6 98.1-16.6 102.3-16.6.3 0 .5-.7.5-1.5 0-2-4-1.9-23 1zm237-87c-63.3 15.2-92.5 23.6-92.5 26.5 0 1.9.7 1.8 14.5-2.5 17.7-5.6 54.8-14.9 114.8-29 1.2-.3 2.2-1.2 2.2-2 0-.9-.9-1.5-2.2-1.4-1.3 0-17.8 3.8-36.8 8.4zm-36.6 49.6c-24.6.7-47.8 2.4-50.8 3.5-2.6 1-1.2 2.9 2 2.8 1.6 0 10.1-.6 18.9-1.3 8.8-.6 38.5-1.6 66-2.1l51.3-1c.6 0 1.2-.7 1.2-1.5 0-1.3-4.2-1.5-32.2-1.3-17.8 0-43.1.5-56.4.9z"/>
<path class="dorabg" fill="red" visibility="visible" d="M536 275.9c0 .6.4 1.2.9 1.5.5.4 25.4 3.8 55.3 7.6l67 8.6c12.8 1.7 17.2 1.4 15-.8-.7-.7-4.2-1.5-7.9-1.9-7.1-.8-19.6-2.4-84.6-10.9-39.9-5.2-45.7-5.7-45.7-4.1zM362.4 616.5c-.4 1.5-.4 8.2-.1 14.8.4 10.3 1 13.5 3.6 20.8 13.8 38.4 48.1 61.6 97.8 66.1 24.4 2.2 52.2-2 71.4-10.9 35-16.3 56.9-47.4 56.9-80.7 0-5.6-.4-10.6-.8-11.2-.5-.8-3-.8-9.2.1-44.5 6.6-140.9 7-200 1-8-.8-15.5-1.8-16.7-2.1-1.8-.5-2.3-.1-2.9 2.1zm17.1 3.4c26.2 3 43.2 3.6 102 3.6 60.4-.1 79.2-.9 101.3-4.4 5-.8 5.3-.7 5.9 1.7 1.8 7.4-2.3 27.6-8.2 39.2-17.7 35.2-55 55-103.5 55-48.1 0-86.3-19.7-103.1-53.1-6.4-12.7-10.2-31.1-8.5-40.4.6-3 1-3.4 2.9-3 1.2.2 6.3.9 11.2 1.4z"/>
</svg>