<svg xmlns="http://www.w3.org/2000/svg" version="1.0" width="400pt" height="400pt" viewBox="0 0 120 120" preserveAspectRatio="xMidYMid meet">
<metadata>Created by potrace 1.16, written by Peter Selinger 2001-2019</metadata>

<g transform="translate(10,100) scale(0.0276,-0.03)" fill="#3fa" stroke="none">
<path d="M795 3088 c-35 -31 -43 -104 -21 -180 9 -31 16 -69 16 -85 0 -28 44 -169 77 -245 13 -31 24 -39 67 -53 28 -9 57 -22 64 -27 7 -6 16 -7 20 -3 4 4 1 10 -5 12 -7 3 -13 13 -13 23 0 10 -6 21 -12 24 -9 4 -10 8 -2 11 6 3 20 12 30 19 18 14 18 15 -1 36 -18 20 -18 22 -3 31 16 9 15 12 -4 45 -12 20 -30 39 -42 44 -12 4 -36 14 -53 20 -43 16 -45 44 -3 35 17 -4 30 -3 30 2 0 16 -24 33 -47 33 -27 0 -29 12 -7 34 19 19 43 9 68 -29 21 -32 38 -32 103 5 29 17 60 30 70 30 13 0 14 3 5 12 -9 9 -22 9 -50 2 -47 -13 -61 -9 -55 15 3 10 0 22 -6 25 -20 12 -12 26 15 26 31 0 28 20 -4 35 -12 5 -22 15 -22 22 0 14 -90 70 -143 89 -49 17 -41 18 -72 -8z"/>
<path d="M2807 2920 c-9 -11 -17 -25 -17 -30 0 -6 -7 -10 -15 -10 -8 0 -12 -6 -9 -13 2 -7 -4 -22 -16 -32 -19 -17 -27 -64 -14 -78 4 -4 15 3 25 14 14 16 22 18 36 10 25 -13 81 21 89 54 10 39 1 70 -19 67 -13 -2 -17 2 -15 15 4 25 -24 27 -45 3z"/>
<path d="M2440 2784 c-36 -12 -80 -23 -98 -23 -46 -1 -104 -27 -100 -45 2 -8 -1 -15 -6 -14 -19 0 -24 -29 -13 -70 13 -48 23 -53 37 -17 5 14 15 25 23 25 17 0 100 54 168 110 30 24 56 45 58 47 16 11 -14 6 -69 -13z"/>
<path d="M1833 2452 c-18 -16 -33 -35 -33 -41 0 -14 -30 -3 -57 22 l-23 20 -1 -29 c-2 -47 1 -58 21 -75 10 -9 20 -31 22 -50 3 -37 30 -48 36 -16 2 11 15 35 28 54 13 20 24 44 24 55 0 11 5 28 11 39 5 11 9 27 7 36 -2 12 -10 9 -35 -15z"/>
<path d="M957 2453 c4 -10 11 -21 17 -25 20 -13 -23 -20 -55 -9 -38 13 -49 8 -49 -24 0 -13 -6 -36 -12 -51 -10 -22 -10 -28 0 -32 12 -4 17 -32 5 -32 -3 0 -14 7 -23 15 -15 14 -20 12 -53 -12 -21 -16 -36 -37 -37 -49 0 -12 -11 -38 -25 -58 -19 -28 -26 -53 -28 -104 -2 -37 1 -75 7 -85 8 -12 8 -22 -2 -37 -6 -11 -12 -36 -12 -55 0 -19 -9 -62 -21 -95 -11 -33 -20 -70 -19 -82 5 -56 -2 -88 -25 -122 -14 -21 -27 -46 -28 -57 -2 -10 -13 -28 -25 -39 -12 -12 -23 -28 -24 -38 -5 -53 -3 -88 6 -94 7 -5 4 -13 -9 -22 -11 -9 -14 -16 -7 -16 19 0 14 -17 -7 -23 -14 -3 -17 -11 -14 -30 3 -15 11 -32 19 -38 9 -8 14 -34 14 -80 0 -52 3 -69 14 -69 8 0 16 -6 19 -14 13 -34 18 -106 9 -138 -8 -29 -7 -39 6 -52 15 -15 15 -20 -2 -64 -10 -26 -20 -72 -22 -104 -2 -31 -8 -73 -13 -95 -6 -21 -14 -55 -20 -77 -6 -23 -6 -48 0 -62 9 -24 -5 -72 -25 -86 -6 -4 10 -5 35 -3 24 3 35 2 24 -1 -20 -6 -35 -22 -35 -36 0 -5 25 -8 55 -8 30 0 55 4 55 9 0 14 87 40 159 47 36 4 82 15 101 24 57 30 126 60 134 60 5 0 6 -13 4 -29 l-4 -30 35 16 c20 8 41 17 48 20 7 3 21 21 33 40 13 22 26 33 35 30 26 -11 38 20 31 79 -8 70 18 170 46 177 14 4 18 15 18 52 0 25 5 56 11 67 11 20 12 21 25 4 14 -20 34 -14 34 10 0 12 4 12 19 2 17 -10 23 -9 41 7 20 18 21 18 50 -3 35 -26 40 -27 40 -7 0 20 57 48 88 42 15 -3 41 3 61 14 20 10 44 19 54 19 27 0 108 40 102 50 -3 5 -13 9 -23 8 -9 0 -51 9 -93 21 -42 11 -109 24 -149 27 -56 6 -74 11 -77 24 -2 9 -20 22 -39 29 -32 12 -40 22 -34 46 2 6 3 21 4 34 1 35 60 51 84 24 10 -11 44 -31 77 -45 47 -21 70 -26 105 -21 25 3 50 12 57 20 6 8 17 12 23 8 7 -4 16 5 22 23 13 35 33 42 98 37 33 -2 53 2 77 18 18 12 33 25 33 30 0 9 -72 77 -82 77 -4 0 -8 -9 -8 -20 0 -12 -10 -24 -24 -30 -13 -5 -26 -17 -29 -27 -3 -10 -5 -3 -6 15 -1 31 -14 42 -25 23 -4 -5 -29 -15 -56 -22 -49 -13 -65 -31 -35 -43 8 -3 15 -12 15 -21 0 -21 -36 -19 -88 6 -34 17 -48 32 -62 64 -10 24 -24 45 -31 47 -9 3 -8 11 5 31 10 14 15 30 13 34 -3 5 -29 8 -58 7 -42 -2 -54 -6 -60 -21 -5 -13 -24 -24 -56 -32 -26 -7 -57 -17 -67 -23 -15 -8 -18 -7 -13 4 6 17 -18 17 -49 0 -18 -9 -24 -9 -34 3 -10 12 -9 16 4 21 9 3 16 15 16 25 0 14 -7 19 -30 19 -16 0 -30 5 -30 10 0 14 -36 13 -76 -2 -27 -9 -38 -9 -59 2 -37 20 -32 37 12 32 30 -4 35 -2 30 12 -4 11 -1 16 11 17 9 1 22 2 27 4 6 1 15 3 20 4 6 1 -1 10 -15 21 -23 18 -23 20 -5 20 19 1 19 1 1 11 -13 8 -51 8 -136 0 -148 -14 -170 -14 -150 -1 8 5 25 10 38 10 12 0 30 4 40 9 9 6 69 14 132 19 l115 9 -100 3 -100 3 60 10 c33 5 62 13 65 17 3 4 15 10 28 14 31 10 27 25 -8 33 -16 3 -30 9 -30 14 0 5 -11 9 -24 9 -14 0 -28 5 -31 10 -4 6 11 10 39 10 34 0 48 5 55 19 7 11 26 20 52 24 50 7 83 32 59 47 -17 11 -172 3 -210 -11 -52 -18 -90 -20 -90 -4 0 20 37 38 66 31 17 -5 24 -2 24 8 0 9 16 15 45 19 48 5 69 16 47 24 -8 3 -29 21 -48 40 l-35 34 23 19 c28 24 37 24 44 5 8 -19 60 -20 71 -1 4 7 15 16 23 19 12 4 11 6 -2 6 -10 1 -18 6 -18 12 0 12 -40 48 -53 49 -5 0 -5 -9 -2 -20 7 -23 -3 -25 -30 -6 -11 7 -32 16 -47 19 -38 10 -27 47 13 47 22 0 29 5 29 20 0 31 25 34 73 11 24 -12 50 -21 59 -21 9 0 30 -24 47 -55 17 -30 36 -55 41 -55 13 0 13 13 -1 27 -8 8 -7 13 1 18 8 5 16 1 22 -9 15 -27 58 -66 72 -66 8 0 16 -6 19 -14 4 -9 23 -16 49 -18 l43 -3 -2 -40 c-8 -135 -9 -130 13 -139 13 -6 25 -26 32 -52 8 -29 29 -60 66 -98 30 -31 59 -56 64 -56 19 0 24 -39 8 -56 -22 -22 -19 -46 7 -65 15 -11 29 -14 45 -8 21 8 22 10 8 32 -15 21 -23 70 -16 92 8 24 -12 75 -30 75 -19 0 -50 40 -50 65 0 8 -5 15 -11 15 -11 0 -7 103 8 187 4 25 1 34 -17 43 -17 9 -25 9 -39 -4 -26 -23 -30 -12 -24 63 l6 67 -49 41 c-61 51 -196 117 -222 109 -22 -7 -153 10 -192 25 -47 17 -123 19 -148 3 -24 -16 -42 -11 -42 12 0 8 -7 14 -15 14 -8 0 -15 4 -15 10 0 5 13 7 29 4 23 -5 32 -2 41 17 18 33 49 64 56 56 9 -8 36 42 29 53 -3 4 -23 8 -45 8 -22 0 -44 4 -50 7 -6 4 -7 -1 -3 -12z"/>
<path d="M2114 2141 c-77 -23 -93 -32 -125 -68 -27 -30 -43 -81 -31 -100 7 -11 74 -33 100 -33 9 0 4 11 -12 31 -14 17 -26 37 -26 45 0 20 40 17 70 -5 29 -23 56 -13 70 25 8 19 6 29 -5 41 -8 8 -13 19 -10 24 9 14 42 11 59 -6 8 -9 21 -14 28 -13 9 2 13 -10 12 -39 0 -24 1 -43 2 -43 2 0 15 17 29 37 24 35 28 38 78 38 51 1 127 28 127 46 0 5 -17 9 -38 9 -20 0 -52 4 -70 10 -71 20 -194 21 -258 1z"/>
<path d="M530 304 c-13 -32 -13 -47 -1 -39 29 17 13 -37 -29 -100 -30 -45 -33 -54 -24 -72 4 -10 6 -22 4 -28 -1 -5 -6 -22 -10 -37 l-9 -28 130 0 c120 0 129 1 129 19 0 29 -11 51 -25 51 -22 0 -30 58 -11 79 20 22 33 81 17 81 -6 0 -11 -3 -11 -8 0 -4 -14 -13 -31 -21 -41 -18 -59 -2 -35 33 32 50 8 96 -53 96 -25 0 -34 -6 -41 -26z"/>
</g>
</svg>